<?xml version="1.0" standalone="no"?>
<!DOCTYPE svg PUBLIC "-//W3C//DTD SVG 20010904//EN"
 "http://www.w3.org/TR/2001/REC-SVG-20010904/DTD/svg10.dtd">
<svg version="1.0" xmlns="http://www.w3.org/2000/svg"
 width="720.000000pt" height="720.000000pt" viewBox="0 0 720.000000 720.000000"
 preserveAspectRatio="xMidYMid meet">
<metadata>
Created by potrace 1.11, written by Peter Selinger 2001-2013
</metadata>
<g transform="translate(0.000000,720.000000) scale(0.100000,-0.100000)"
fill="#000000" stroke="none">
<path d="M3037 6098 c-10 -5 -17 -7 -17 -4 0 7 -34 -20 -62 -49 -26 -26 -92
-140 -109 -187 -7 -21 -17 -38 -23 -38 -5 0 -7 -3 -4 -6 4 -3 -9 -49 -28 -102
-20 -53 -37 -104 -39 -112 -6 -28 -36 -135 -42 -150 -3 -8 -8 -24 -10 -35 -2
-11 -6 -27 -10 -35 -3 -8 -8 -28 -10 -45 -3 -16 -8 -32 -11 -35 -4 -3 -7 -9
-7 -15 -1 -25 -29 -145 -35 -145 -3 0 -6 -8 -7 -17 -4 -35 -23 -134 -30 -153
-3 -8 -7 -24 -9 -35 -1 -11 -10 -54 -19 -95 -10 -41 -19 -86 -22 -100 -3 -14
-7 -32 -10 -40 -4 -8 -7 -22 -8 -30 -1 -8 -7 -40 -13 -70 -19 -86 -23 -103
-28 -130 -5 -26 -16 -78 -20 -95 -5 -19 -14 -60 -19 -85 -6 -29 -6 -32 -35
-165 -11 -55 -23 -109 -25 -120 -6 -32 -13 -60 -15 -60 -1 0 -3 -11 -4 -25 -3
-31 -27 -150 -34 -170 -2 -8 -7 -31 -9 -50 -2 -19 -8 -39 -13 -45 -6 -7 -8
-14 -5 -17 3 -2 0 -19 -5 -38 -5 -18 -12 -51 -16 -74 -3 -22 -8 -45 -12 -51
-3 -5 -8 -28 -10 -50 -2 -22 -8 -42 -13 -43 -5 -2 -7 -7 -5 -10 4 -7 -4 -55
-17 -107 -28 -107 -39 -156 -43 -190 -3 -21 -8 -44 -12 -50 -4 -5 -7 -16 -9
-24 -3 -25 -25 -116 -30 -131 -3 -8 -7 -22 -8 -30 -2 -8 -6 -24 -9 -35 -9 -34
-28 -109 -32 -135 -3 -13 -9 -29 -15 -36 -5 -6 -6 -14 -3 -17 3 -3 2 -12 -2
-19 -4 -7 -9 -19 -11 -28 -11 -60 -16 -80 -22 -80 -4 0 -8 -6 -8 -14 0 -19
-45 -180 -52 -186 -3 -3 -7 -14 -9 -25 -2 -11 -13 -47 -24 -80 -23 -67 -27
-83 -28 -90 0 -3 -7 -19 -15 -35 -9 -17 -12 -30 -8 -30 4 0 2 -5 -5 -12 -7 -7
-12 -20 -12 -30 0 -10 -5 -18 -11 -18 -5 0 -8 -3 -5 -8 2 -4 -3 -23 -11 -42
-9 -19 -17 -41 -19 -49 -1 -8 -6 -17 -11 -20 -4 -3 -10 -15 -11 -26 -2 -11 -8
-21 -13 -23 -5 -2 -9 -9 -9 -16 0 -7 -16 -42 -35 -77 -19 -35 -42 -81 -52
-102 -10 -20 -21 -37 -25 -37 -5 0 -8 -7 -8 -15 0 -8 -4 -15 -10 -15 -5 0 -10
-5 -10 -11 0 -12 -41 -68 -90 -123 -35 -39 -51 -54 -105 -101 -48 -42 -155
-101 -225 -125 -36 -12 -68 -25 -72 -29 -6 -6 465 -6 552 0 14 0 30 0 35 -1
24 -5 265 -1 274 4 5 4 12 2 15 -2 5 -8 29 -9 61 -2 6 1 15 1 20 0 6 -1 76 -2
158 -2 81 0 150 -4 153 -9 3 -5 9 -7 14 -4 5 3 864 6 1908 8 1045 1 1898 5
1895 9 -2 5 -8 8 -13 8 -5 0 -21 5 -37 12 -15 6 -31 11 -34 10 -8 -1 -154 73
-175 90 -76 59 -208 205 -249 276 -5 9 -27 45 -47 78 -21 34 -38 69 -38 78 0
9 -3 16 -8 16 -4 0 -13 15 -21 33 -8 17 -26 59 -41 92 -15 33 -33 76 -40 95
-7 19 -21 54 -31 78 -11 24 -17 47 -14 52 4 6 2 10 -2 10 -9 0 -59 154 -54
166 1 4 -2 10 -7 13 -10 6 -72 205 -77 247 -2 12 -8 31 -15 44 -6 12 -9 28 -6
36 3 8 0 14 -6 14 -6 0 -8 3 -5 6 3 4 2 14 -3 24 -5 9 -12 30 -15 46 -3 16
-11 53 -19 82 -8 28 -12 52 -9 52 3 0 0 7 -7 15 -6 8 -9 19 -6 24 4 5 2 12 -3
15 -5 3 -12 27 -16 53 -5 27 -10 53 -11 58 -24 81 -63 251 -80 345 -3 14 -9
39 -14 55 -12 38 -39 160 -45 200 -2 17 -13 68 -24 115 -11 47 -22 101 -26
120 -9 50 -12 66 -29 144 -9 38 -13 73 -10 77 3 5 1 9 -3 9 -7 0 -18 43 -39
160 -3 14 -11 52 -19 85 -7 33 -17 78 -21 100 -4 22 -8 45 -10 50 -14 59 -17
74 -18 98 0 15 -4 27 -8 27 -3 0 -5 8 -3 18 1 9 -1 24 -6 33 -4 9 -11 29 -14
45 -10 56 -21 111 -30 149 -3 11 -14 61 -25 110 -11 50 -22 99 -25 110 -2 11
-9 40 -16 65 -6 25 -12 50 -13 55 -2 6 -8 28 -14 50 -16 57 -24 96 -26 123 0
12 -4 22 -7 22 -4 0 -10 17 -14 38 -3 20 -15 64 -26 97 -10 33 -20 69 -22 80
-1 11 -6 26 -10 33 -5 6 -5 17 -2 22 3 6 2 10 -3 10 -6 0 -18 30 -28 68 -9 37
-20 72 -24 77 -4 6 -15 33 -25 60 -17 47 -49 112 -90 180 -10 17 -37 45 -60
63 -61 46 -103 42 -161 -15 -23 -24 -46 -52 -49 -63 -4 -11 -11 -20 -16 -20
-5 0 -9 -7 -9 -16 0 -8 -11 -34 -24 -57 -13 -23 -30 -61 -37 -84 -7 -24 -16
-43 -21 -43 -4 0 -7 -3 -7 -7 1 -5 1 -10 -1 -13 -1 -3 -3 -16 -6 -29 -2 -14
-9 -30 -15 -38 -6 -7 -8 -13 -4 -13 4 0 2 -7 -5 -15 -7 -8 -10 -15 -7 -15 4 0
-1 -19 -9 -42 -9 -24 -18 -56 -21 -73 -3 -16 -9 -38 -15 -48 -5 -10 -11 -26
-13 -35 -2 -9 -15 -64 -30 -122 -14 -58 -28 -116 -31 -130 -3 -14 -8 -34 -11
-45 -10 -30 -12 -37 -18 -75 -3 -19 -9 -42 -12 -50 -9 -23 -14 -43 -14 -60 -1
-8 -3 -22 -6 -30 -3 -8 -8 -31 -10 -50 -2 -19 -7 -37 -11 -40 -4 -3 -7 -9 -7
-15 0 -5 -7 -39 -14 -75 -8 -36 -15 -69 -16 -75 -3 -26 -17 -92 -22 -105 -3
-8 -7 -22 -8 -30 -1 -8 -8 -42 -15 -75 -8 -33 -14 -64 -15 -70 -1 -5 -3 -12
-4 -15 -2 -3 -4 -16 -6 -30 -7 -54 -28 -145 -36 -154 -5 -6 -9 2 -10 20 0 16
-2 36 -5 44 -7 28 -54 244 -75 345 -27 131 -27 134 -33 153 -3 9 -8 33 -11 52
-3 19 -12 58 -20 85 -8 28 -16 64 -18 80 -2 17 -6 37 -9 45 -6 15 -48 195 -51
221 -2 8 -5 19 -8 24 -6 9 -20 69 -24 100 -1 6 -7 22 -13 37 -6 15 -13 38 -15
50 -2 13 -7 30 -10 38 -3 8 -11 34 -17 57 -16 65 -55 180 -90 268 -65 165
-120 245 -189 275 -26 12 -43 15 -54 8z m47 -104 c3 -8 2 -12 -4 -9 -6 3 -10
10 -10 16 0 14 7 11 14 -7z m1201 -162 c-3 -3 -11 0 -18 7 -9 10 -8 11 6 5 10
-3 15 -9 12 -12z m-1155 -106 c0 -2 -7 -7 -16 -10 -8 -3 -12 -2 -9 4 6 10 25
14 25 6z m1351 -93 c13 -16 12 -17 -3 -4 -10 7 -18 15 -18 17 0 8 8 3 21 -13z
m-40 -46 c-10 -9 -11 -8 -5 6 3 10 9 15 12 12 3 -3 0 -11 -7 -18z m-1551 -31
c-7 -7 -13 -7 -20 0 -6 6 -3 10 10 10 13 0 16 -4 10 -10z m4 -74 c2 -4 -4 -8
-14 -8 -10 0 -16 4 -14 8 3 4 9 8 14 8 5 0 11 -4 14 -8z m397 -39 c13 -16 12
-17 -3 -4 -10 7 -18 15 -18 17 0 8 8 3 21 -13z m-123 -88 c-3 -3 -9 2 -12 12
-6 14 -5 15 5 6 7 -7 10 -15 7 -18z m1407 -35 c-3 -5 -12 -10 -18 -10 -7 0 -6
4 3 10 19 12 23 12 15 0z m-1440 -160 c-3 -5 -12 -10 -18 -10 -7 0 -6 4 3 10
19 12 23 12 15 0z m79 -2 c-3 -4 -9 -8 -15 -8 -5 0 -9 4 -9 8 0 5 7 9 15 9 8
0 12 -4 9 -9z m71 -6 c-3 -3 -11 0 -18 7 -9 10 -8 11 6 5 10 -3 15 -9 12 -12z
m889 6 c-3 -4 -9 -8 -15 -8 -5 0 -9 4 -9 8 0 5 7 9 15 9 8 0 12 -4 9 -9z m476
-62 c0 -2 -8 -10 -17 -17 -16 -13 -17 -12 -4 4 13 16 21 21 21 13z m-240 -10
c0 -2 -7 -7 -16 -10 -8 -3 -12 -2 -9 4 6 10 25 14 25 6z m-1604 -121 c-1 -8
-5 -17 -8 -21 -5 -4 -4 16 1 34 3 9 9 -1 7 -13z m1802 -90 c-3 -3 -9 2 -12 12
-6 14 -5 15 5 6 7 -7 10 -15 7 -18z m-1913 5 c3 -6 -1 -7 -9 -4 -18 7 -21 14
-7 14 6 0 13 -4 16 -10z m391 -80 c0 -12 -4 -16 -9 -11 -5 5 -6 14 -3 20 10
15 12 14 12 -9z m254 6 c0 -2 -8 -10 -17 -17 -16 -13 -17 -12 -4 4 13 16 21
21 21 13z m1110 -86 c0 -5 -2 -10 -4 -10 -3 0 -8 5 -11 10 -3 6 -1 10 4 10 6
0 11 -4 11 -10z m210 4 c0 -8 -19 -13 -24 -6 -3 5 1 9 9 9 8 0 15 -2 15 -3z
m-2005 -44 c-3 -5 -12 -10 -18 -10 -7 0 -6 4 3 10 19 12 23 12 15 0z m75 -4
c-7 -7 -13 -7 -20 0 -6 6 -3 10 10 10 13 0 16 -4 10 -10z m75 -4 c-3 -3 -11 0
-18 7 -9 10 -8 11 6 5 10 -3 15 -9 12 -12z m90 -72 c3 -6 -1 -7 -9 -4 -18 7
-21 14 -7 14 6 0 13 -4 16 -10z m390 -88 c-3 -3 -11 0 -18 7 -9 10 -8 11 6 5
10 -3 15 -9 12 -12z m1015 -26 c0 -2 -8 -10 -17 -17 -16 -13 -17 -12 -4 4 13
16 21 21 21 13z m-1577 -41 c-3 -9 -8 -14 -10 -11 -3 3 -2 9 2 15 9 16 15 13
8 -4z m412 -5 c3 -6 -1 -7 -9 -4 -18 7 -21 14 -7 14 6 0 13 -4 16 -10z m429
-46 c3 -8 2 -12 -4 -9 -6 3 -10 10 -10 16 0 14 7 11 14 -7z m1120 0 c3 -8 2
-12 -4 -9 -6 3 -10 10 -10 16 0 14 7 11 14 -7z m-1154 -28 c0 -3 -4 -8 -10
-11 -5 -3 -10 -1 -10 4 0 6 5 11 10 11 6 0 10 -2 10 -4z m475 -14 c-3 -3 -11
0 -18 7 -9 10 -8 11 6 5 10 -3 15 -9 12 -12z m682 -27 c0 -8 -4 -15 -9 -15
-10 0 -11 14 -1 23 9 10 10 9 10 -8z m-2123 -51 c3 -8 2 -12 -4 -9 -6 3 -10
10 -10 16 0 14 7 11 14 -7z m1846 12 c0 -2 -7 -7 -16 -10 -8 -3 -12 -2 -9 4 6
10 25 14 25 6z m280 -40 c0 -3 -4 -8 -10 -11 -5 -3 -10 -1 -10 4 0 6 5 11 10
11 6 0 10 -2 10 -4z m-2110 -42 c0 -8 -19 -13 -24 -6 -3 5 1 9 9 9 8 0 15 -2
15 -3z m1505 -4 c3 -5 1 -10 -4 -10 -6 0 -11 5 -11 10 0 6 2 10 4 10 3 0 8 -4
11 -10z m-1481 -46 c3 -8 2 -12 -4 -9 -6 3 -10 10 -10 16 0 14 7 11 14 -7z
m736 12 c0 -2 -8 -10 -17 -17 -16 -13 -17 -12 -4 4 13 16 21 21 21 13z m461
-19 c-10 -9 -11 -8 -5 6 3 10 9 15 12 12 3 -3 0 -11 -7 -18z m1059 19 c0 -2
-8 -10 -17 -17 -16 -13 -17 -12 -4 4 13 16 21 21 21 13z m-1005 -46 c-3 -5
-12 -10 -18 -10 -7 0 -6 4 3 10 19 12 23 12 15 0z m-725 -80 c0 -5 -5 -10 -11
-10 -5 0 -7 5 -4 10 3 6 8 10 11 10 2 0 4 -4 4 -10z m-640 -74 c0 -3 -4 -8
-10 -11 -5 -3 -10 -1 -10 4 0 6 5 11 10 11 6 0 10 -2 10 -4z m475 -94 c-3 -3
-11 0 -18 7 -9 10 -8 11 6 5 10 -3 15 -9 12 -12z m1290 -72 c3 -6 -1 -7 -9 -4
-18 7 -21 14 -7 14 6 0 13 -4 16 -10z m399 2 c2 -4 -4 -8 -14 -8 -10 0 -16 4
-14 8 3 4 9 8 14 8 5 0 11 -4 14 -8z m-1964 -42 c0 -5 -2 -10 -4 -10 -3 0 -8
5 -11 10 -3 6 -1 10 4 10 6 0 11 -4 11 -10z m760 -40 c0 -5 -5 -10 -11 -10 -5
0 -7 5 -4 10 3 6 8 10 11 10 2 0 4 -4 4 -10z m480 0 c0 -5 -5 -10 -11 -10 -5
0 -7 5 -4 10 3 6 8 10 11 10 2 0 4 -4 4 -10z m-1440 -24 c0 -2 -8 -10 -17 -17
-16 -13 -17 -12 -4 4 13 16 21 21 21 13z m320 -50 c0 -2 -7 -7 -16 -10 -8 -3
-12 -2 -9 4 6 10 25 14 25 6z m678 -131 c-3 -3 -9 2 -12 12 -6 14 -5 15 5 6 7
-7 10 -15 7 -18z m-445 -30 c-3 -9 -8 -14 -10 -11 -3 3 -2 9 2 15 9 16 15 13
8 -4z m-553 1 c0 -2 -7 -7 -16 -10 -8 -3 -12 -2 -9 4 6 10 25 14 25 6z m1873
-41 c-3 -9 -8 -14 -10 -11 -3 3 -2 9 2 15 9 16 15 13 8 -4z m362 -45 c3 -5 1
-10 -4 -10 -6 0 -11 5 -11 10 0 6 2 10 4 10 3 0 8 -4 11 -10z m-630 -80 c3 -6
-1 -7 -9 -4 -18 7 -21 14 -7 14 6 0 13 -4 16 -10z m395 6 c0 -2 -7 -7 -16 -10
-8 -3 -12 -2 -9 4 6 10 25 14 25 6z m-1642 -51 c-3 -3 -9 2 -12 12 -6 14 -5
15 5 6 7 -7 10 -15 7 -18z m1996 -1 c3 -8 2 -12 -4 -9 -6 3 -10 10 -10 16 0
14 7 11 14 -7z m3 -69 c0 -8 -4 -15 -9 -15 -10 0 -11 14 -1 23 9 10 10 9 10
-8z m-1922 -5 c3 -5 1 -10 -4 -10 -6 0 -11 5 -11 10 0 6 2 10 4 10 3 0 8 -4
11 -10z m236 -13 c-10 -9 -11 -8 -5 6 3 10 9 15 12 12 3 -3 0 -11 -7 -18z m83
7 c3 -8 2 -12 -4 -9 -6 3 -10 10 -10 16 0 14 7 11 14 -7z m1404 -39 c-3 -3 -9
2 -12 12 -6 14 -5 15 5 6 7 -7 10 -15 7 -18z m-398 11 c0 -2 -7 -7 -16 -10 -8
-3 -12 -2 -9 4 6 10 25 14 25 6z m600 -40 c0 -2 -7 -7 -16 -10 -8 -3 -12 -2
-9 4 6 10 25 14 25 6z m-1880 -120 c0 -2 -7 -7 -16 -10 -8 -3 -12 -2 -9 4 6
10 25 14 25 6z m-155 -86 c-3 -5 -12 -10 -18 -10 -7 0 -6 4 3 10 19 12 23 12
15 0z m1829 -6 c3 -8 2 -12 -4 -9 -6 3 -10 10 -10 16 0 14 7 11 14 -7z m411 6
c-3 -5 -12 -10 -18 -10 -7 0 -6 4 3 10 19 12 23 12 15 0z m-2611 -126 c3 -8 2
-12 -4 -9 -6 3 -10 10 -10 16 0 14 7 11 14 -7z m1761 6 c3 -5 1 -10 -4 -10 -6
0 -11 5 -11 10 0 6 2 10 4 10 3 0 8 -4 11 -10z m935 6 c0 -2 -8 -10 -17 -17
-16 -13 -17 -12 -4 4 13 16 21 21 21 13z m-325 -46 c-3 -5 -12 -10 -18 -10 -7
0 -6 4 3 10 19 12 23 12 15 0z m-2369 -40 c0 -12 -4 -16 -9 -11 -5 5 -6 14 -3
20 10 15 12 14 12 -9z m1964 16 c0 -2 -8 -10 -17 -17 -16 -13 -17 -12 -4 4 13
16 21 21 21 13z m-200 -10 c0 -2 -7 -7 -16 -10 -8 -3 -12 -2 -9 4 6 10 25 14
25 6z m365 -46 c3 -6 -1 -7 -9 -4 -18 7 -21 14 -7 14 6 0 13 -4 16 -10z m635
6 c0 -2 -7 -7 -16 -10 -8 -3 -12 -2 -9 4 6 10 25 14 25 6z m-2767 -41 c-3 -9
-8 -14 -10 -11 -3 3 -2 9 2 15 9 16 15 13 8 -4z m1685 -10 c-3 -3 -9 2 -12 12
-6 14 -5 15 5 6 7 -7 10 -15 7 -18z m-1204 -1 c3 -8 2 -12 -4 -9 -6 3 -10 10
-10 16 0 14 7 11 14 -7z m1997 -7 c-10 -9 -11 -8 -5 6 3 10 9 15 12 12 3 -3 0
-11 -7 -18z m-753 -32 c-3 -3 -9 2 -12 12 -6 14 -5 15 5 6 7 -7 10 -15 7 -18z
m-1040 -80 c-3 -3 -9 2 -12 12 -6 14 -5 15 5 6 7 -7 10 -15 7 -18z m-394 7 c2
-4 -4 -8 -14 -8 -10 0 -16 4 -14 8 3 4 9 8 14 8 5 0 11 -4 14 -8z m1676 4 c0
-2 -7 -7 -16 -10 -8 -3 -12 -2 -9 4 6 10 25 14 25 6z m156 -126 c0 -12 -4 -16
-9 -11 -5 5 -6 14 -3 20 10 15 12 14 12 -9z m125 3 c13 -16 12 -17 -3 -4 -17
13 -22 21 -14 21 2 0 10 -8 17 -17z m75 -3 c0 -12 -4 -16 -9 -11 -5 5 -6 14
-3 20 10 15 12 14 12 -9z m241 -5 c0 -8 -4 -12 -9 -9 -4 3 -8 9 -8 15 0 5 4 9
8 9 5 0 9 -7 9 -15z m-827 -29 c0 -2 -8 -10 -17 -17 -16 -13 -17 -12 -4 4 13
16 21 21 21 13z m1145 -14 c-3 -3 -11 0 -18 7 -9 10 -8 11 6 5 10 -3 15 -9 12
-12z m-920 -101 c3 -5 2 -12 -3 -15 -5 -3 -9 1 -9 9 0 17 3 19 12 6z m-1800
-11 c3 -5 1 -10 -4 -10 -6 0 -11 5 -11 10 0 6 2 10 4 10 3 0 8 -4 11 -10z
m236 -13 c-10 -9 -11 -8 -5 6 3 10 9 15 12 12 3 -3 0 -11 -7 -18z m2369 -21
c0 -2 -7 -7 -16 -10 -8 -3 -12 -2 -9 4 6 10 25 14 25 6z m-282 -51 c-3 -3 -9
2 -12 12 -6 14 -5 15 5 6 7 -7 10 -15 7 -18z m-2603 -43 c-3 -3 -11 0 -18 7
-9 10 -8 11 6 5 10 -3 15 -9 12 -12z m2245 8 c0 -5 -5 -10 -11 -10 -5 0 -7 5
-4 10 3 6 8 10 11 10 2 0 4 -4 4 -10z m37 -45 c0 -8 -4 -12 -9 -9 -5 3 -6 10
-3 15 9 13 12 11 12 -6z m-2437 -29 c0 -2 -7 -7 -16 -10 -8 -3 -12 -2 -9 4 6
10 25 14 25 6z m805 -6 c3 -6 -1 -7 -9 -4 -18 7 -21 14 -7 14 6 0 13 -4 16
-10z m-284 -117 c13 -16 12 -17 -3 -4 -17 13 -22 21 -14 21 2 0 10 -8 17 -17z
m2152 2 c-3 -9 -8 -14 -10 -11 -3 3 -2 9 2 15 9 16 15 13 8 -4z m-2393 1 c0
-2 -7 -7 -16 -10 -8 -3 -12 -2 -9 4 6 10 25 14 25 6z m2240 -80 c0 -3 -4 -8
-10 -11 -5 -3 -10 -1 -10 4 0 6 5 11 10 11 6 0 10 -2 10 -4z m475 -6 c3 -5 1
-10 -4 -10 -6 0 -11 5 -11 10 0 6 2 10 4 10 3 0 8 -4 11 -10z m-3195 -81 c0
-5 -4 -9 -8 -9 -5 0 -9 7 -9 15 0 8 4 12 9 9 4 -3 8 -9 8 -15z m80 17 c0 -2
-8 -10 -17 -17 -16 -13 -17 -12 -4 4 13 16 21 21 21 13z m920 0 c0 -2 -8 -10
-17 -17 -16 -13 -17 -12 -4 4 13 16 21 21 21 13z m2400 0 c0 -2 -8 -10 -17
-17 -16 -13 -17 -12 -4 4 13 16 21 21 21 13z m-3400 -90 c0 -2 -7 -7 -16 -10
-8 -3 -12 -2 -9 4 6 10 25 14 25 6z m3000 -50 c-7 -7 -13 -7 -20 0 -6 6 -3 10
10 10 13 0 16 -4 10 -10z m194 -42 c3 -8 2 -12 -4 -9 -6 3 -10 10 -10 16 0 14
7 11 14 -7z m-2669 -34 c3 -6 -1 -7 -9 -4 -18 7 -21 14 -7 14 6 0 13 -4 16
-10z m79 2 c2 -4 -4 -8 -14 -8 -10 0 -16 4 -14 8 3 4 9 8 14 8 5 0 11 -4 14
-8z m76 4 c0 -2 -7 -7 -16 -10 -8 -3 -12 -2 -9 4 6 10 25 14 25 6z m-804 -132
c1 -9 0 -13 -4 -10 -3 4 -7 14 -8 22 -1 9 0 13 4 10 3 -4 7 -14 8 -22z m84 22
c0 -2 -8 -10 -17 -17 -16 -13 -17 -12 -4 4 13 16 21 21 21 13z m3840 -50 c0
-2 -7 -7 -16 -10 -8 -3 -12 -2 -9 4 6 10 25 14 25 6z m-4127 -41 c-3 -9 -8
-14 -10 -11 -3 3 -2 9 2 15 9 16 15 13 8 -4z m372 -45 c-3 -5 -12 -10 -18 -10
-7 0 -6 4 3 10 19 12 23 12 15 0z m355 -39 c0 -6 -4 -12 -8 -15 -5 -3 -9 1 -9
9 0 8 4 15 9 15 4 0 8 -4 8 -9z m-2 -86 c-3 -3 -9 2 -12 12 -6 14 -5 15 5 6 7
-7 10 -15 7 -18z m3520 0 c-3 -3 -9 2 -12 12 -6 14 -5 15 5 6 7 -7 10 -15 7
-18z"/>
</g>
</svg>
